# xmcd
#
# Track frame offsets: 
#        150
#        13692
#        40097
#        65007
#        85336
#        99850
#        126592
#        140399
#        164199
#        184837
#        200864
#        213674
#        232764
#        251671
#        275479
#
# Disc length: 3896 seconds
#
# Revision: 0
# Processed by: cddbd v1.5.2PL0 Copyright (c) Steve Scherf et al.
# Submitted via: ExactAudioCopyFreeDBPlugin 1.0
#
DISCID=e30f360f
DTITLE=Boz Scaggs - Hits!
DYEAR=2006
DGENRE=Soul
TTITLE0=What Can I Say
TTITLE1=JoJo
TTITLE2=Miss Sun
TTITLE3=Hard Times
TTITLE4=Slow Dancer
TTITLE5=Harbor Lights
TTITLE6=Dinah Flo
TTITLE7=Look What You've Done To Me
TTITLE8=Breakdown Dead Ahead
TTITLE9=You Make It So Hard (To Say No)
TTITLE10=It's Over
TTITLE11=We're All Alone
TTITLE12=Heart Of Mine
TTITLE13=Lowdown
TTITLE14=Lido Shuffle
EXTD=
EXTT0=
EXTT1=
EXTT2=
EXTT3=
EXTT4=
EXTT5=
EXTT6=
EXTT7=
EXTT8=
EXTT9=
EXTT10=
EXTT11=
EXTT12=
EXTT13=
EXTT14=
PLAYORDER=
